<mxfile host="app.diagrams.net" agent="Mozilla/5.0 (Windows NT 10.0; Win64; x64) AppleWebKit/537.36 (KHTML, like Gecko) Chrome/131.0.0.0 Safari/537.36 Edg/131.0.0.0" version="26.0.5">
  <diagram id="C5RBs43oDa-KdzZeNtuy" name="Page-1">
    <mxGraphModel dx="586" dy="1631" grid="1" gridSize="10" guides="1" tooltips="1" connect="1" arrows="1" fold="1" page="1" pageScale="1" pageWidth="827" pageHeight="1169" math="0" shadow="0">
      <root>
        <mxCell id="WIyWlLk6GJQsqaUBKTNV-0" />
        <mxCell id="WIyWlLk6GJQsqaUBKTNV-1" parent="WIyWlLk6GJQsqaUBKTNV-0" />
        <mxCell id="vUyfz-R1X-f6t5YyaU62-0" value="" style="rounded=0;whiteSpace=wrap;html=1;" vertex="1" parent="WIyWlLk6GJQsqaUBKTNV-1">
          <mxGeometry x="484" y="210" width="120" height="60" as="geometry" />
        </mxCell>
        <mxCell id="vUyfz-R1X-f6t5YyaU62-2" value="Sanity System" style="text;html=1;align=center;verticalAlign=middle;whiteSpace=wrap;rounded=0;" vertex="1" parent="WIyWlLk6GJQsqaUBKTNV-1">
          <mxGeometry x="494" y="220" width="100" height="40" as="geometry" />
        </mxCell>
        <mxCell id="vUyfz-R1X-f6t5YyaU62-3" value="" style="endArrow=classic;html=1;rounded=0;entryX=0.5;entryY=0;entryDx=0;entryDy=0;" edge="1" parent="WIyWlLk6GJQsqaUBKTNV-1" target="vUyfz-R1X-f6t5YyaU62-4">
          <mxGeometry width="50" height="50" relative="1" as="geometry">
            <mxPoint x="543.5" y="270" as="sourcePoint" />
            <mxPoint x="544" y="340" as="targetPoint" />
            <Array as="points">
              <mxPoint x="544" y="310" />
              <mxPoint x="434" y="310" />
            </Array>
          </mxGeometry>
        </mxCell>
        <mxCell id="vUyfz-R1X-f6t5YyaU62-4" value="" style="rounded=0;whiteSpace=wrap;html=1;" vertex="1" parent="WIyWlLk6GJQsqaUBKTNV-1">
          <mxGeometry x="374" y="340" width="120" height="60" as="geometry" />
        </mxCell>
        <mxCell id="vUyfz-R1X-f6t5YyaU62-5" value="Check Nearby Tracker" style="text;html=1;align=center;verticalAlign=middle;whiteSpace=wrap;rounded=0;" vertex="1" parent="WIyWlLk6GJQsqaUBKTNV-1">
          <mxGeometry x="384" y="350" width="100" height="40" as="geometry" />
        </mxCell>
        <mxCell id="vUyfz-R1X-f6t5YyaU62-6" value="" style="endArrow=classic;html=1;rounded=0;" edge="1" parent="WIyWlLk6GJQsqaUBKTNV-1">
          <mxGeometry width="50" height="50" relative="1" as="geometry">
            <mxPoint x="543.5" y="310" as="sourcePoint" />
            <mxPoint x="544" y="410" as="targetPoint" />
          </mxGeometry>
        </mxCell>
        <mxCell id="vUyfz-R1X-f6t5YyaU62-7" value="" style="endArrow=classic;html=1;rounded=0;entryX=0.592;entryY=-0.033;entryDx=0;entryDy=0;entryPerimeter=0;" edge="1" parent="WIyWlLk6GJQsqaUBKTNV-1" target="vUyfz-R1X-f6t5YyaU62-8">
          <mxGeometry width="50" height="50" relative="1" as="geometry">
            <mxPoint x="544" y="310" as="sourcePoint" />
            <mxPoint x="664" y="330" as="targetPoint" />
            <Array as="points">
              <mxPoint x="604" y="310" />
              <mxPoint x="664" y="310" />
            </Array>
          </mxGeometry>
        </mxCell>
        <mxCell id="vUyfz-R1X-f6t5YyaU62-8" value="" style="rounded=0;whiteSpace=wrap;html=1;" vertex="1" parent="WIyWlLk6GJQsqaUBKTNV-1">
          <mxGeometry x="594" y="340" width="120" height="60" as="geometry" />
        </mxCell>
        <mxCell id="vUyfz-R1X-f6t5YyaU62-9" value="" style="rounded=0;whiteSpace=wrap;html=1;" vertex="1" parent="WIyWlLk6GJQsqaUBKTNV-1">
          <mxGeometry x="484" y="410" width="120" height="60" as="geometry" />
        </mxCell>
        <mxCell id="vUyfz-R1X-f6t5YyaU62-10" value="Set Sanity" style="text;html=1;align=center;verticalAlign=middle;whiteSpace=wrap;rounded=0;" vertex="1" parent="WIyWlLk6GJQsqaUBKTNV-1">
          <mxGeometry x="494" y="420" width="100" height="40" as="geometry" />
        </mxCell>
        <mxCell id="vUyfz-R1X-f6t5YyaU62-11" value="Verify Sanity" style="text;html=1;align=center;verticalAlign=middle;whiteSpace=wrap;rounded=0;" vertex="1" parent="WIyWlLk6GJQsqaUBKTNV-1">
          <mxGeometry x="604" y="350" width="100" height="40" as="geometry" />
        </mxCell>
        <mxCell id="vUyfz-R1X-f6t5YyaU62-12" value="" style="endArrow=classic;html=1;rounded=0;" edge="1" parent="WIyWlLk6GJQsqaUBKTNV-1">
          <mxGeometry width="50" height="50" relative="1" as="geometry">
            <mxPoint x="374" y="369.5" as="sourcePoint" />
            <mxPoint x="300" y="370" as="targetPoint" />
          </mxGeometry>
        </mxCell>
        <mxCell id="vUyfz-R1X-f6t5YyaU62-14" value="" style="rounded=0;whiteSpace=wrap;html=1;" vertex="1" parent="WIyWlLk6GJQsqaUBKTNV-1">
          <mxGeometry x="180" y="340" width="120" height="60" as="geometry" />
        </mxCell>
        <mxCell id="vUyfz-R1X-f6t5YyaU62-15" value="" style="endArrow=classic;html=1;rounded=0;entryX=0.833;entryY=0;entryDx=0;entryDy=0;entryPerimeter=0;" edge="1" parent="WIyWlLk6GJQsqaUBKTNV-1">
          <mxGeometry width="50" height="50" relative="1" as="geometry">
            <mxPoint x="239.54" y="400" as="sourcePoint" />
            <mxPoint x="239.50000000000003" y="450" as="targetPoint" />
          </mxGeometry>
        </mxCell>
        <mxCell id="vUyfz-R1X-f6t5YyaU62-16" value="" style="rounded=0;whiteSpace=wrap;html=1;" vertex="1" parent="WIyWlLk6GJQsqaUBKTNV-1">
          <mxGeometry x="180" y="450" width="120" height="60" as="geometry" />
        </mxCell>
        <mxCell id="vUyfz-R1X-f6t5YyaU62-17" value="Sanity Tracker" style="text;html=1;align=center;verticalAlign=middle;whiteSpace=wrap;rounded=0;" vertex="1" parent="WIyWlLk6GJQsqaUBKTNV-1">
          <mxGeometry x="190" y="350" width="100" height="40" as="geometry" />
        </mxCell>
        <mxCell id="vUyfz-R1X-f6t5YyaU62-18" value="Get Sanity Effect" style="text;html=1;align=center;verticalAlign=middle;whiteSpace=wrap;rounded=0;" vertex="1" parent="WIyWlLk6GJQsqaUBKTNV-1">
          <mxGeometry x="190" y="460" width="100" height="40" as="geometry" />
        </mxCell>
        <mxCell id="vUyfz-R1X-f6t5YyaU62-19" value="" style="endArrow=classic;html=1;rounded=0;" edge="1" parent="WIyWlLk6GJQsqaUBKTNV-1">
          <mxGeometry width="50" height="50" relative="1" as="geometry">
            <mxPoint x="240" y="420" as="sourcePoint" />
            <mxPoint x="110" y="450" as="targetPoint" />
            <Array as="points">
              <mxPoint x="110" y="420" />
            </Array>
          </mxGeometry>
        </mxCell>
        <mxCell id="vUyfz-R1X-f6t5YyaU62-20" value="" style="rounded=0;whiteSpace=wrap;html=1;" vertex="1" parent="WIyWlLk6GJQsqaUBKTNV-1">
          <mxGeometry x="50" y="450" width="120" height="60" as="geometry" />
        </mxCell>
        <mxCell id="vUyfz-R1X-f6t5YyaU62-21" value="" style="rounded=0;whiteSpace=wrap;html=1;" vertex="1" parent="WIyWlLk6GJQsqaUBKTNV-1">
          <mxGeometry x="320" y="450" width="120" height="60" as="geometry" />
        </mxCell>
        <mxCell id="vUyfz-R1X-f6t5YyaU62-22" value="" style="endArrow=classic;html=1;rounded=0;entryX=0.592;entryY=0.017;entryDx=0;entryDy=0;entryPerimeter=0;" edge="1" parent="WIyWlLk6GJQsqaUBKTNV-1" target="vUyfz-R1X-f6t5YyaU62-21">
          <mxGeometry width="50" height="50" relative="1" as="geometry">
            <mxPoint x="240" y="420" as="sourcePoint" />
            <mxPoint x="360" y="440" as="targetPoint" />
            <Array as="points">
              <mxPoint x="390" y="420" />
            </Array>
          </mxGeometry>
        </mxCell>
        <mxCell id="vUyfz-R1X-f6t5YyaU62-23" value="Get Sanity Amount" style="text;html=1;align=center;verticalAlign=middle;whiteSpace=wrap;rounded=0;" vertex="1" parent="WIyWlLk6GJQsqaUBKTNV-1">
          <mxGeometry x="60" y="460" width="100" height="40" as="geometry" />
        </mxCell>
        <mxCell id="vUyfz-R1X-f6t5YyaU62-24" value="Get Radius" style="text;html=1;align=center;verticalAlign=middle;whiteSpace=wrap;rounded=0;" vertex="1" parent="WIyWlLk6GJQsqaUBKTNV-1">
          <mxGeometry x="330" y="460" width="100" height="40" as="geometry" />
        </mxCell>
        <mxCell id="vUyfz-R1X-f6t5YyaU62-26" value="" style="endArrow=classic;html=1;rounded=0;entryX=0.45;entryY=0.933;entryDx=0;entryDy=0;entryPerimeter=0;" edge="1" parent="WIyWlLk6GJQsqaUBKTNV-1" target="vUyfz-R1X-f6t5YyaU62-9">
          <mxGeometry width="50" height="50" relative="1" as="geometry">
            <mxPoint x="109.5" y="510" as="sourcePoint" />
            <mxPoint x="580" y="600" as="targetPoint" />
            <Array as="points">
              <mxPoint x="110" y="600" />
              <mxPoint x="540" y="600" />
            </Array>
          </mxGeometry>
        </mxCell>
        <mxCell id="vUyfz-R1X-f6t5YyaU62-28" value="" style="endArrow=classic;html=1;rounded=0;exitX=0.808;exitY=0.017;exitDx=0;exitDy=0;exitPerimeter=0;entryX=0.367;entryY=0.933;entryDx=0;entryDy=0;entryPerimeter=0;" edge="1" parent="WIyWlLk6GJQsqaUBKTNV-1" source="vUyfz-R1X-f6t5YyaU62-21" target="vUyfz-R1X-f6t5YyaU62-4">
          <mxGeometry width="50" height="50" relative="1" as="geometry">
            <mxPoint x="413" y="440" as="sourcePoint" />
            <mxPoint x="413" y="400" as="targetPoint" />
          </mxGeometry>
        </mxCell>
        <mxCell id="vUyfz-R1X-f6t5YyaU62-29" value="" style="endArrow=classic;html=1;rounded=0;entryX=1;entryY=0.5;entryDx=0;entryDy=0;" edge="1" parent="WIyWlLk6GJQsqaUBKTNV-1" target="vUyfz-R1X-f6t5YyaU62-9">
          <mxGeometry width="50" height="50" relative="1" as="geometry">
            <mxPoint x="660" y="400" as="sourcePoint" />
            <mxPoint x="660" y="450" as="targetPoint" />
            <Array as="points">
              <mxPoint x="660" y="440" />
            </Array>
          </mxGeometry>
        </mxCell>
        <mxCell id="vUyfz-R1X-f6t5YyaU62-30" value="" style="endArrow=classic;html=1;rounded=0;entryX=0.808;entryY=0.95;entryDx=0;entryDy=0;entryPerimeter=0;" edge="1" parent="WIyWlLk6GJQsqaUBKTNV-1" target="vUyfz-R1X-f6t5YyaU62-8">
          <mxGeometry width="50" height="50" relative="1" as="geometry">
            <mxPoint x="239.5" y="510" as="sourcePoint" />
            <mxPoint x="660" y="480" as="targetPoint" />
            <Array as="points">
              <mxPoint x="240" y="560" />
              <mxPoint x="690" y="560" />
            </Array>
          </mxGeometry>
        </mxCell>
      </root>
    </mxGraphModel>
  </diagram>
</mxfile>
